<mxfile host="app.diagrams.net" modified="2023-12-29T18:35:50.537Z" agent="Mozilla/5.0 (Macintosh; Intel Mac OS X 10_15_7) AppleWebKit/537.36 (KHTML, like Gecko) Chrome/120.0.0.0 Safari/537.36" etag="GdI1qpqJ47VMqpzmSydK" version="21.8.2" type="github">
  <diagram name="Page-1" id="9DRgU3y03HpOURzVbDyi">
    <mxGraphModel dx="1096" dy="1026" grid="1" gridSize="10" guides="1" tooltips="1" connect="1" arrows="1" fold="1" page="1" pageScale="1" pageWidth="850" pageHeight="1100" math="0" shadow="0">
      <root>
        <mxCell id="0" />
        <mxCell id="1" parent="0" />
        <mxCell id="CiJ1i-YsuGAtSJoDgXCd-7" value="" style="rounded=0;whiteSpace=wrap;html=1;" parent="1" vertex="1">
          <mxGeometry x="296.5" y="120" width="197" height="160" as="geometry" />
        </mxCell>
        <mxCell id="CiJ1i-YsuGAtSJoDgXCd-1" value="" style="shape=mxgraph.cisco.switches.workgroup_switch;sketch=0;html=1;pointerEvents=1;dashed=0;fillColor=#036897;strokeColor=#ffffff;strokeWidth=2;verticalLabelPosition=bottom;verticalAlign=top;align=center;outlineConnect=0;" parent="1" vertex="1">
          <mxGeometry x="101" y="622" width="121" height="60" as="geometry" />
        </mxCell>
        <mxCell id="CiJ1i-YsuGAtSJoDgXCd-2" value="" style="shape=mxgraph.cisco.switches.workgroup_switch;sketch=0;html=1;pointerEvents=1;dashed=0;fillColor=#036897;strokeColor=#ffffff;strokeWidth=2;verticalLabelPosition=bottom;verticalAlign=top;align=center;outlineConnect=0;" parent="1" vertex="1">
          <mxGeometry x="579" y="622" width="121" height="60" as="geometry" />
        </mxCell>
        <mxCell id="CiJ1i-YsuGAtSJoDgXCd-4" value="" style="shape=mxgraph.cisco.servers.fileserver;sketch=0;html=1;pointerEvents=1;dashed=0;fillColor=#036897;strokeColor=#ffffff;strokeWidth=2;verticalLabelPosition=bottom;verticalAlign=top;align=center;outlineConnect=0;" parent="1" vertex="1">
          <mxGeometry x="436.5" y="169" width="43" height="62" as="geometry" />
        </mxCell>
        <mxCell id="CiJ1i-YsuGAtSJoDgXCd-6" value="" style="shape=mxgraph.cisco.servers.fileserver;sketch=0;html=1;pointerEvents=1;dashed=0;fillColor=#036897;strokeColor=#ffffff;strokeWidth=2;verticalLabelPosition=bottom;verticalAlign=top;align=center;outlineConnect=0;" parent="1" vertex="1">
          <mxGeometry x="306.5" y="169" width="43" height="62" as="geometry" />
        </mxCell>
        <mxCell id="CiJ1i-YsuGAtSJoDgXCd-10" value="" style="sketch=0;points=[[0.015,0.015,0],[0.985,0.015,0],[0.985,0.985,0],[0.015,0.985,0],[0.25,0,0],[0.5,0,0],[0.75,0,0],[1,0.25,0],[1,0.5,0],[1,0.75,0],[0.75,1,0],[0.5,1,0],[0.25,1,0],[0,0.75,0],[0,0.5,0],[0,0.25,0]];verticalLabelPosition=bottom;html=1;verticalAlign=top;aspect=fixed;align=center;pointerEvents=1;shape=mxgraph.cisco19.rect;prIcon=workgroup_switch;fillColor=#FAFAFA;strokeColor=#6696AB;" parent="1" vertex="1">
          <mxGeometry x="350" y="436" width="90" height="90" as="geometry" />
        </mxCell>
        <mxCell id="CiJ1i-YsuGAtSJoDgXCd-15" value="" style="endArrow=classic;startArrow=classic;html=1;rounded=0;entryX=0;entryY=0.5;entryDx=0;entryDy=0;entryPerimeter=0;exitX=0.5;exitY=0;exitDx=0;exitDy=0;exitPerimeter=0;" parent="1" source="CiJ1i-YsuGAtSJoDgXCd-1" target="CiJ1i-YsuGAtSJoDgXCd-10" edge="1">
          <mxGeometry width="50" height="50" relative="1" as="geometry">
            <mxPoint x="271" y="526" as="sourcePoint" />
            <mxPoint x="321" y="476" as="targetPoint" />
            <Array as="points">
              <mxPoint x="160" y="481" />
            </Array>
          </mxGeometry>
        </mxCell>
        <mxCell id="CiJ1i-YsuGAtSJoDgXCd-16" value="" style="endArrow=classic;startArrow=classic;html=1;rounded=0;entryX=0.5;entryY=1;entryDx=0;entryDy=0;exitX=0.5;exitY=0;exitDx=0;exitDy=0;exitPerimeter=0;" parent="1" source="CiJ1i-YsuGAtSJoDgXCd-10" target="CiJ1i-YsuGAtSJoDgXCd-7" edge="1">
          <mxGeometry width="50" height="50" relative="1" as="geometry">
            <mxPoint x="290" y="550" as="sourcePoint" />
            <mxPoint x="340" y="500" as="targetPoint" />
          </mxGeometry>
        </mxCell>
        <mxCell id="gEqlcqjcZocWmGMkQX7y-1" value="" style="endArrow=classic;startArrow=classic;html=1;rounded=0;entryX=0.5;entryY=0;entryDx=0;entryDy=0;entryPerimeter=0;exitX=1;exitY=0.5;exitDx=0;exitDy=0;exitPerimeter=0;shadow=0;jumpSize=6;" edge="1" parent="1" source="CiJ1i-YsuGAtSJoDgXCd-10" target="CiJ1i-YsuGAtSJoDgXCd-2">
          <mxGeometry width="50" height="50" relative="1" as="geometry">
            <mxPoint x="400" y="550" as="sourcePoint" />
            <mxPoint x="450" y="500" as="targetPoint" />
            <Array as="points">
              <mxPoint x="640" y="480" />
            </Array>
          </mxGeometry>
        </mxCell>
        <mxCell id="gEqlcqjcZocWmGMkQX7y-3" value="&lt;b&gt;Arista-SW1&lt;/b&gt;" style="text;strokeColor=none;align=center;fillColor=none;html=1;verticalAlign=middle;whiteSpace=wrap;rounded=0;" vertex="1" parent="1">
          <mxGeometry x="101" y="682" width="80" height="30" as="geometry" />
        </mxCell>
        <mxCell id="gEqlcqjcZocWmGMkQX7y-4" value="&lt;b&gt;Arista-SW2&lt;/b&gt;" style="text;strokeColor=none;align=center;fillColor=none;html=1;verticalAlign=middle;whiteSpace=wrap;rounded=0;" vertex="1" parent="1">
          <mxGeometry x="579" y="682" width="80" height="30" as="geometry" />
        </mxCell>
        <mxCell id="gEqlcqjcZocWmGMkQX7y-9" value="&lt;b&gt;vSwitch&lt;/b&gt;" style="text;strokeColor=none;align=center;fillColor=none;html=1;verticalAlign=middle;whiteSpace=wrap;rounded=0;" vertex="1" parent="1">
          <mxGeometry x="360" y="530" width="60" height="30" as="geometry" />
        </mxCell>
        <mxCell id="gEqlcqjcZocWmGMkQX7y-10" value="&lt;b&gt;Ubuntu server&lt;/b&gt;" style="text;strokeColor=none;align=center;fillColor=none;html=1;verticalAlign=middle;whiteSpace=wrap;rounded=0;" vertex="1" parent="1">
          <mxGeometry x="345" y="80" width="95" height="30" as="geometry" />
        </mxCell>
        <mxCell id="gEqlcqjcZocWmGMkQX7y-11" value="" style="edgeStyle=none;orthogonalLoop=1;jettySize=auto;html=1;rounded=0;" edge="1" parent="1">
          <mxGeometry width="80" relative="1" as="geometry">
            <mxPoint x="226.5" y="201.5" as="sourcePoint" />
            <mxPoint x="306.5" y="201.5" as="targetPoint" />
            <Array as="points" />
          </mxGeometry>
        </mxCell>
        <mxCell id="gEqlcqjcZocWmGMkQX7y-12" value="&lt;b&gt;DHCP server&lt;/b&gt;" style="text;strokeColor=none;align=center;fillColor=none;html=1;verticalAlign=middle;whiteSpace=wrap;rounded=0;" vertex="1" parent="1">
          <mxGeometry x="140" y="185" width="80" height="30" as="geometry" />
        </mxCell>
        <mxCell id="gEqlcqjcZocWmGMkQX7y-13" value="" style="edgeStyle=none;orthogonalLoop=1;jettySize=auto;html=1;rounded=0;entryX=1;entryY=0.5;entryDx=0;entryDy=0;entryPerimeter=0;" edge="1" parent="1" target="CiJ1i-YsuGAtSJoDgXCd-4">
          <mxGeometry width="80" relative="1" as="geometry">
            <mxPoint x="550" y="200" as="sourcePoint" />
            <mxPoint x="500" y="200" as="targetPoint" />
            <Array as="points" />
          </mxGeometry>
        </mxCell>
        <mxCell id="gEqlcqjcZocWmGMkQX7y-14" value="&lt;b&gt;TFTP server&lt;/b&gt;" style="text;strokeColor=none;align=center;fillColor=none;html=1;verticalAlign=middle;whiteSpace=wrap;rounded=0;" vertex="1" parent="1">
          <mxGeometry x="560" y="185" width="80" height="30" as="geometry" />
        </mxCell>
        <mxCell id="gEqlcqjcZocWmGMkQX7y-26" value="" style="endArrow=classic;startArrow=classic;html=1;rounded=0;exitX=0.87;exitY=0.74;exitDx=0;exitDy=0;exitPerimeter=0;" edge="1" parent="1" source="CiJ1i-YsuGAtSJoDgXCd-1">
          <mxGeometry width="50" height="50" relative="1" as="geometry">
            <mxPoint x="360" y="640" as="sourcePoint" />
            <mxPoint x="570" y="666" as="targetPoint" />
          </mxGeometry>
        </mxCell>
      </root>
    </mxGraphModel>
  </diagram>
</mxfile>
